<svg id="Layer_1" data-name="Layer 1" xmlns="http://www.w3.org/2000/svg" viewBox="0 0 1000 296.99"><defs><style>.cls-1{fill:#666767;}.cls-2{fill:#fed54e;}.cls-3{fill:#3172a5;}</style></defs><title>Artboard 1</title><path class="cls-1" d="M368.65,243.4h-9.38v-81s15.28,0,25.56-.13c13,.13,22.86,9.63,23,21.83s-9.25,21.45-21.58,21.45h-17.6Zm15-74.36h-15v30.05h14.77c8.86,0,14.9-6.29,14.9-15.28C398.31,176.23,391.76,169,383.67,169Z"/><path class="cls-1" d="M427.47,225c0,8.61,6.17,13.1,14.51,13,5-.13,10.66-3,13.74-5V187.14h9.38v51c0,6.55-.39,16.44-3.08,21.58-4.75,9-18.11,12.59-27.61,12.84l-1.54-5.91c7.19-1,17.47-2.05,21.32-9.37,1.93-3.6,2.05-10.66,2.05-14.77a15.47,15.47,0,0,0,0-2.44,44.26,44.26,0,0,1-20.16,4.37c-8.48,0-18.11-6-18.11-16.44v-39l9.5-3.21V225Z"/><path class="cls-1" d="M526.23,162.48,522.89,169H490.52v27.61h27.1l-3.47,6.42h-23.5V243.4h-9.38V162.48Z"/><path class="cls-1" d="M533.42,167.49a6.1,6.1,0,1,1,0,.13ZM535,188.81l9.25-3.08V243.4H535Z"/><path class="cls-1" d="M561.93,230.17V156.83l9.12-3v76c0,7.45,4,9.25,10.53,9.5v4.88C569.12,245.45,561.93,239.8,561.93,230.17Z"/><path class="cls-1" d="M623.58,243c-8.09,2.31-18.62,2.44-25.3-3.21-6.17-5.27-9.89-14.13-9.89-23.63.13-14.77,6.17-30.05,22.6-30.05,15.67,0,21.45,10.79,21.71,28.13H598.28c-1,14.64,6.42,24.53,17,24.15,6.42-.13,11-2.31,15.8-4.62l2.18,4.5A37.41,37.41,0,0,1,623.58,243Zm-.26-34.16c0-8.22-3.6-17-11.94-17-9,0-12.2,8.73-12.84,16.83h24.66Z"/><path class="cls-1" d="M643.1,238.65l3.34-5.39a26.34,26.34,0,0,0,14.51,5c6.16,0,13.49-2.83,13.23-9.89-.13-5.52-5.14-7.19-9.38-8.86-1.67-.64-3.47-1.41-5.27-1.93-3.47-1.28-7.06-2.57-10-4.88A12.19,12.19,0,0,1,644.12,202c0-10.79,9.63-16.7,19.65-16.7,5.78,0,11.17,1.93,16.31,4.75l-3.47,5.52a25.77,25.77,0,0,0-12.33-3.72c-5.39,0-11.3,2.83-11.43,8.86,0,3.21,1.93,5,4.88,6.29s6.68,2.83,10.27,4.24,7.06,2.7,10,5a13.18,13.18,0,0,1,5.39,10.92c-.13,12.07-11.56,17.72-22.35,17.72A30.5,30.5,0,0,1,643.1,238.65Z"/><path class="cls-1" d="M704.74,225c0,8.61,6.16,13.1,14.51,13,5-.13,10.66-3,13.74-5V187.14h9.38v51c0,6.55-.39,16.44-3.08,21.58-4.75,9-18.11,12.59-27.61,12.84l-1.54-5.91c7.19-1,17.47-2.05,21.32-9.37,1.93-3.6,2.05-10.66,2.05-14.77a15.41,15.41,0,0,0,0-2.44,44.26,44.26,0,0,1-20.16,4.37c-8.48,0-18.11-6-18.11-16.44v-39l9.5-3.21V225Z"/><path class="cls-1" d="M753.67,238.65l3.34-5.39a26.35,26.35,0,0,0,14.51,5c6.16,0,13.49-2.83,13.23-9.89-.13-5.52-5.14-7.19-9.38-8.86-1.67-.64-3.47-1.41-5.27-1.93-3.47-1.28-7.06-2.57-10-4.88A12.19,12.19,0,0,1,754.7,202c0-10.79,9.63-16.7,19.65-16.7,5.78,0,11.17,1.93,16.31,4.75l-3.47,5.52a25.77,25.77,0,0,0-12.33-3.72c-5.39,0-11.3,2.83-11.43,8.86,0,3.21,1.93,5,4.88,6.29s6.68,2.83,10.27,4.24,7.06,2.7,10,5A13.18,13.18,0,0,1,794,227.21c-.13,12.07-11.56,17.72-22.35,17.72A30.5,30.5,0,0,1,753.67,238.65Z"/><path class="cls-1" d="M801.45,193.18v-6h6.42V171.47l9.38-3.34v19h10.53v6H817.24v36.6c0,7.45,4,9.25,10.53,9.5v4.88c-12.46,1.16-19.91-4.5-19.91-14.13V193.18Z"/><path class="cls-1" d="M873.88,243c-8.09,2.31-18.62,2.44-25.3-3.21-6.17-5.27-9.89-14.13-9.89-23.63.13-14.77,6.17-30.05,22.6-30.05,15.67,0,21.45,10.79,21.71,28.13H848.58c-1,14.64,6.42,24.53,17,24.15,6.42-.13,11-2.31,15.8-4.62l2.18,4.5A37.41,37.41,0,0,1,873.88,243Zm-.26-34.16c0-8.22-3.6-17-11.94-17-9,0-12.2,8.73-12.84,16.83H873.5Z"/><path class="cls-1" d="M969.69,243.4h-9.37l-.13-38.27c0-8.6-4.11-13.49-13.49-13.1-3.34.13-7.32,2.44-9.5,4.11a14.78,14.78,0,0,1,.51,4.24v43h-9.38V205.12c0-8.6-4.11-13.61-13.74-13a14.7,14.7,0,0,0-8.73,4.11V243.4h-9.38V195.11c8.22-6,13.36-9.25,23.89-9.38A18.69,18.69,0,0,1,934,191.25a33.67,33.67,0,0,1,18.37-5.52c8.48,0,17.34,5.91,17.34,15.28Z"/><path class="cls-2" d="M284.32,228.75l41.31-90.56a11.46,11.46,0,0,0,.92-2.66,10,10,0,0,0-2.27-8.12h0a9.88,9.88,0,0,0-7.67-3.55H161A39.59,39.59,0,0,0,125.19,147l-40,88.86a24.4,24.4,0,0,1-4.82,7.63h181A25.3,25.3,0,0,0,284.32,228.75Z"/><path class="cls-3" d="M57.36,242.9h2.78a20.62,20.62,0,0,0,19.12-13h0l40.09-89a43.5,43.5,0,0,1,39.41-25.47h95.59A20.85,20.85,0,0,0,269.8,95.31v-47c0-14.33-18.6-23.14-36.16-23.14H216c-16.05,0-32.44,8-32.44,23.14V69.24h49v7.82H78.22a41.45,41.45,0,0,0-41.45,41.45V222.32A20.59,20.59,0,0,0,57.36,242.9ZM202.71,58.61a9.73,9.73,0,1,1,9.74-9.73A9.73,9.73,0,0,1,202.71,58.61Z"/></svg>